<mxfile host="app.diagrams.net" modified="2021-10-03T18:55:17.011Z" agent="5.0 (X11)" etag="FCluwPQfrL7BzJ0O9IMF" version="15.4.1" type="github">
  <diagram id="dN890XwKDrlQEA6mXEyN" name="Page-1">
    <mxGraphModel dx="1052" dy="593" grid="1" gridSize="10" guides="1" tooltips="1" connect="1" arrows="1" fold="1" page="1" pageScale="1" pageWidth="850" pageHeight="1100" math="0" shadow="0">
      <root>
        <mxCell id="0" />
        <mxCell id="1" parent="0" />
        <mxCell id="p1jvPJaMp_n3-hUyZxaR-36" value="" style="rounded=0;whiteSpace=wrap;html=1;" vertex="1" parent="1">
          <mxGeometry x="620" y="80" width="540" height="340" as="geometry" />
        </mxCell>
        <mxCell id="p1jvPJaMp_n3-hUyZxaR-7" value="" style="verticalLabelPosition=bottom;html=1;verticalAlign=top;align=center;shape=mxgraph.floorplan.room;fillColor=#000000;" vertex="1" parent="1">
          <mxGeometry x="60" y="70" width="410" height="330" as="geometry" />
        </mxCell>
        <mxCell id="p1jvPJaMp_n3-hUyZxaR-8" value="" style="verticalLabelPosition=bottom;html=1;verticalAlign=top;align=center;shape=mxgraph.floorplan.wall;fillColor=#000000;direction=south;" vertex="1" parent="1">
          <mxGeometry x="240" y="280" width="10" height="120" as="geometry" />
        </mxCell>
        <mxCell id="p1jvPJaMp_n3-hUyZxaR-11" value="" style="verticalLabelPosition=bottom;html=1;verticalAlign=top;align=center;shape=mxgraph.floorplan.doorLeft;aspect=fixed;" vertex="1" parent="1">
          <mxGeometry x="130" y="390" width="84.71" height="90" as="geometry" />
        </mxCell>
        <mxCell id="p1jvPJaMp_n3-hUyZxaR-12" value="" style="verticalLabelPosition=bottom;html=1;verticalAlign=top;align=center;shape=mxgraph.floorplan.window;" vertex="1" parent="1">
          <mxGeometry x="306" y="390" width="100" height="10" as="geometry" />
        </mxCell>
        <mxCell id="p1jvPJaMp_n3-hUyZxaR-13" value="" style="verticalLabelPosition=bottom;html=1;verticalAlign=top;align=center;shape=mxgraph.floorplan.wall;fillColor=#000000;" vertex="1" parent="1">
          <mxGeometry x="230" y="240" width="240" height="10" as="geometry" />
        </mxCell>
        <mxCell id="p1jvPJaMp_n3-hUyZxaR-14" value="" style="verticalLabelPosition=bottom;html=1;verticalAlign=top;align=center;shape=mxgraph.floorplan.wall;fillColor=#000000;" vertex="1" parent="1">
          <mxGeometry x="70" y="240" width="70" height="10" as="geometry" />
        </mxCell>
        <mxCell id="p1jvPJaMp_n3-hUyZxaR-16" value="" style="swimlane;startSize=0;" vertex="1" parent="1">
          <mxGeometry x="60" y="400" width="220" height="140" as="geometry" />
        </mxCell>
        <mxCell id="p1jvPJaMp_n3-hUyZxaR-21" value="" style="rounded=1;whiteSpace=wrap;html=1;fillColor=#ccc;strokeColor=#36393d;" vertex="1" parent="p1jvPJaMp_n3-hUyZxaR-16">
          <mxGeometry y="120" width="20" height="20" as="geometry" />
        </mxCell>
        <mxCell id="p1jvPJaMp_n3-hUyZxaR-22" value="" style="rounded=1;whiteSpace=wrap;html=1;fillColor=#ccc;strokeColor=#36393d;" vertex="1" parent="p1jvPJaMp_n3-hUyZxaR-16">
          <mxGeometry x="200" y="120" width="20" height="20" as="geometry" />
        </mxCell>
        <mxCell id="p1jvPJaMp_n3-hUyZxaR-18" value="" style="rounded=0;whiteSpace=wrap;html=1;" vertex="1" parent="1">
          <mxGeometry x="280" y="400" width="20" height="140" as="geometry" />
        </mxCell>
        <mxCell id="p1jvPJaMp_n3-hUyZxaR-19" value="" style="rounded=0;whiteSpace=wrap;html=1;" vertex="1" parent="1">
          <mxGeometry x="300" y="400" width="20" height="140" as="geometry" />
        </mxCell>
        <mxCell id="p1jvPJaMp_n3-hUyZxaR-20" value="" style="rounded=0;whiteSpace=wrap;html=1;" vertex="1" parent="1">
          <mxGeometry x="320" y="400" width="20" height="140" as="geometry" />
        </mxCell>
        <mxCell id="p1jvPJaMp_n3-hUyZxaR-23" value="" style="rounded=1;whiteSpace=wrap;html=1;fillColor=#ccc;strokeColor=#36393d;" vertex="1" parent="1">
          <mxGeometry x="450" y="520" width="20" height="20" as="geometry" />
        </mxCell>
        <mxCell id="p1jvPJaMp_n3-hUyZxaR-38" value="" style="rounded=0;whiteSpace=wrap;html=1;fillColor=#a0522d;strokeColor=#6D1F00;fontColor=#ffffff;" vertex="1" parent="1">
          <mxGeometry x="700" y="150" width="90" height="190" as="geometry" />
        </mxCell>
        <mxCell id="p1jvPJaMp_n3-hUyZxaR-39" value="" style="rounded=0;whiteSpace=wrap;html=1;" vertex="1" parent="1">
          <mxGeometry x="870" y="150" width="120" height="120" as="geometry" />
        </mxCell>
        <mxCell id="p1jvPJaMp_n3-hUyZxaR-41" value="" style="rounded=0;whiteSpace=wrap;html=1;strokeWidth=0;" vertex="1" parent="1">
          <mxGeometry x="810" y="320" width="120" height="60" as="geometry" />
        </mxCell>
        <mxCell id="p1jvPJaMp_n3-hUyZxaR-42" value="" style="rounded=0;whiteSpace=wrap;html=1;strokeWidth=2;" vertex="1" parent="1">
          <mxGeometry x="880" y="360" width="30" height="60" as="geometry" />
        </mxCell>
        <mxCell id="p1jvPJaMp_n3-hUyZxaR-43" value="" style="rounded=0;whiteSpace=wrap;html=1;strokeWidth=2;" vertex="1" parent="1">
          <mxGeometry x="620" y="350" width="260" height="70" as="geometry" />
        </mxCell>
        <mxCell id="p1jvPJaMp_n3-hUyZxaR-44" value="" style="rounded=0;whiteSpace=wrap;html=1;strokeWidth=2;" vertex="1" parent="1">
          <mxGeometry x="910" y="380" width="30" height="40" as="geometry" />
        </mxCell>
        <mxCell id="p1jvPJaMp_n3-hUyZxaR-45" value="" style="rounded=0;whiteSpace=wrap;html=1;strokeWidth=2;" vertex="1" parent="1">
          <mxGeometry x="940" y="400" width="30" height="20" as="geometry" />
        </mxCell>
        <mxCell id="p1jvPJaMp_n3-hUyZxaR-46" value="" style="rounded=1;whiteSpace=wrap;html=1;strokeWidth=2;fillColor=#ccc;strokeColor=#666666;gradientColor=#b3b3b3;" vertex="1" parent="1">
          <mxGeometry x="620" y="110" width="10" height="240" as="geometry" />
        </mxCell>
        <mxCell id="p1jvPJaMp_n3-hUyZxaR-47" value="" style="rounded=1;whiteSpace=wrap;html=1;strokeWidth=2;fillColor=#ccc;strokeColor=#666666;gradientColor=#b3b3b3;" vertex="1" parent="1">
          <mxGeometry x="850" y="110" width="10" height="240" as="geometry" />
        </mxCell>
        <mxCell id="p1jvPJaMp_n3-hUyZxaR-48" value="" style="rounded=1;whiteSpace=wrap;html=1;strokeWidth=2;fillColor=#ccc;strokeColor=#666666;gradientColor=#b3b3b3;" vertex="1" parent="1">
          <mxGeometry x="1150" y="110" width="10" height="310" as="geometry" />
        </mxCell>
        <mxCell id="p1jvPJaMp_n3-hUyZxaR-51" value="" style="rounded=1;whiteSpace=wrap;html=1;fillColor=#ccc;strokeColor=#36393d;" vertex="1" parent="1">
          <mxGeometry x="415.88" y="630" width="20" height="20" as="geometry" />
        </mxCell>
        <mxCell id="p1jvPJaMp_n3-hUyZxaR-52" value="" style="rounded=1;whiteSpace=wrap;html=1;fillColor=#ccc;strokeColor=#36393d;" vertex="1" parent="1">
          <mxGeometry x="330" y="630" width="20" height="20" as="geometry" />
        </mxCell>
        <mxCell id="p1jvPJaMp_n3-hUyZxaR-53" value="" style="verticalLabelPosition=bottom;html=1;verticalAlign=top;align=center;shape=mxgraph.floorplan.doorRight;aspect=fixed;strokeWidth=2;fillColor=#ccc;direction=west;" vertex="1" parent="1">
          <mxGeometry x="350" y="580" width="65.88" height="70" as="geometry" />
        </mxCell>
        <mxCell id="p1jvPJaMp_n3-hUyZxaR-54" value="" style="ellipse;whiteSpace=wrap;html=1;aspect=fixed;strokeWidth=2;fillColor=#ccc;" vertex="1" parent="1">
          <mxGeometry x="780" y="230" width="10" height="10" as="geometry" />
        </mxCell>
        <mxCell id="p1jvPJaMp_n3-hUyZxaR-57" value="" style="rounded=1;whiteSpace=wrap;html=1;strokeWidth=2;fillColor=#ccc;" vertex="1" parent="1">
          <mxGeometry x="530" y="780" width="600" height="10" as="geometry" />
        </mxCell>
        <mxCell id="p1jvPJaMp_n3-hUyZxaR-60" value="" style="shape=cylinder3;whiteSpace=wrap;html=1;boundedLbl=1;backgroundOutline=1;size=15;strokeWidth=2;fillColor=#ccc;" vertex="1" parent="1">
          <mxGeometry x="540" y="355" width="60" height="80" as="geometry" />
        </mxCell>
        <mxCell id="p1jvPJaMp_n3-hUyZxaR-63" value="1.2" style="shape=dimension;direction=south;whiteSpace=wrap;html=1;align=left;points=[];verticalAlign=middle;labelBackgroundColor=#ffffff;strokeWidth=2;fillColor=#ccc;" vertex="1" parent="1">
          <mxGeometry x="10" y="400" width="40" height="140" as="geometry" />
        </mxCell>
      </root>
    </mxGraphModel>
  </diagram>
</mxfile>
